<svg width="1280" height="720" xmlns="http://www.w3.org/2000/svg" xmlns:xlink="http://www.w3.org/1999/xlink" overflow="hidden"><defs><clipPath id="clip0"><rect x="0" y="0" width="1280" height="720"/></clipPath></defs><g clip-path="url(#clip0)"><rect x="0" y="0" width="1280" height="720" fill="#FFFFFF"/><path d="M9 389C9 380.164 16.1636 373 25.0002 373L234 373C242.836 373 250 380.164 250 389L250 453C250 461.836 242.836 469 234 469L25.0002 469C16.1636 469 9 461.836 9 453Z" fill="#8FAADC" fill-rule="evenodd"/><text font-family="Microsoft YaHei,Microsoft YaHei_MSFontService,sans-serif" font-weight="400" font-size="24" transform="translate(21.7004 392)">HDFS</text><rect x="41.5001" y="409.5" width="176" height="29" stroke="#000000" stroke-width="1.33333" stroke-miterlimit="8" fill="#FFFFFF"/><text font-family="Microsoft YaHei,Microsoft YaHei_MSFontService,sans-serif" font-weight="400" font-size="24" transform="translate(54.133 432)">SZ<tspan x="28.6667" y="0">-</tspan><tspan x="39" y="0">metro.csv</tspan></text><path d="M280 389C280 380.164 287.164 373 296 373L505 373C513.836 373 521 380.164 521 389L521 453C521 461.836 513.836 469 505 469L296 469C287.164 469 280 461.836 280 453Z" fill="#8FAADC" fill-rule="evenodd"/><text font-family="Microsoft YaHei,Microsoft YaHei_MSFontService,sans-serif" font-weight="400" font-size="24" transform="translate(294.306 392)">Redis</text><rect x="313.5" y="409.5" width="176" height="29" stroke="#000000" stroke-width="1.33333" stroke-miterlimit="8" fill="#FFFFFF"/><text font-family="Microsoft YaHei,Microsoft YaHei_MSFontService,sans-serif" font-weight="400" font-size="24" transform="translate(328.875 432)">地铁乘车记录</text><path d="M498 34.6673C498 18.8348 510.835 6 526.667 6L805.333 6C821.165 6 834 18.8348 834 34.6673L834 149.333C834 165.165 821.165 178 805.333 178L526.667 178C510.835 178 498 165.165 498 149.333Z" fill="#FFE699" fill-rule="evenodd"/><text font-family="Microsoft YaHei,Microsoft YaHei_MSFontService,sans-serif" font-weight="400" font-size="24" transform="translate(513.076 33)">数据源</text><rect x="605.5" y="15.5001" width="121" height="27" stroke="#000000" stroke-width="1.33333" stroke-miterlimit="8" fill="#FFFFFF"/><text font-family="Microsoft YaHei,Microsoft YaHei_MSFontService,sans-serif" font-weight="400" font-size="24" transform="translate(616.393 37)">WEB API</text><rect x="561.5" y="78.5001" width="209" height="27" stroke="#000000" stroke-width="1.33333" stroke-miterlimit="8" fill="#FFFFFF"/><text font-family="Microsoft YaHei,Microsoft YaHei_MSFontService,sans-serif" font-weight="400" font-size="24" transform="translate(584.646 100)">SZ<tspan x="28.6667" y="0">-</tspan><tspan x="39" y="0">metro.json</tspan></text><rect x="580.5" y="142.5" width="171" height="26" stroke="#000000" stroke-width="1.33333" stroke-miterlimit="8" fill="#FFFFFF"/><text font-family="Microsoft YaHei,Microsoft YaHei_MSFontService,sans-serif" font-weight="400" font-size="24" transform="translate(633.976 163)">Kafka</text><path d="M668 42.5 668 71.6242 665 71.6242 665 42.5001ZM671 70.1242 666.5 79.1242 662 70.1242Z" fill="#0D0D0D"/><path d="M668 105.5 668 134.624 665 134.624 665 105.5ZM671 133.124 666.5 142.124 662 133.124Z" fill="#0D0D0D"/><path d="M667.43 178 667.43 231.83 129 231.83 131 229.83 131 363.333 127 363.333 127 227.83 665.43 227.83 663.43 229.83 663.43 178ZM135 361.333 129 373.333 123 361.333Z" fill="#404040"/><text font-family="Microsoft YaHei,Microsoft YaHei_MSFontService,sans-serif" font-weight="400" font-size="24" transform="translate(424.36 345)">Flink<tspan x="-267.788" y="-3">Flink</tspan><tspan x="365.176" y="-81">Flink</tspan></text><path d="M639 613.167C639 604.238 646.238 597 655.167 597L863.833 597C872.762 597 880 604.238 880 613.167L880 677.833C880 686.762 872.762 694 863.833 694L655.167 694C646.238 694 639 686.762 639 677.833Z" fill="#8FAADC" fill-rule="evenodd"/><text font-family="Microsoft YaHei,Microsoft YaHei_MSFontService,sans-serif" font-weight="400" font-size="24" transform="translate(658.092 620)">Hbase</text><rect x="672.5" y="634.5" width="176" height="28" stroke="#000000" stroke-width="1.33333" stroke-miterlimit="8" fill="#FFFFFF"/><text font-family="Microsoft YaHei,Microsoft YaHei_MSFontService,sans-serif" font-weight="400" font-size="24" transform="translate(687.83 657)">实时计算结果</text><path d="M611 314.834C611 292.834 628.834 275 650.834 275L869.166 275C891.166 275 909 292.834 909 314.834L909 474.166C909 496.166 891.166 514 869.166 514L650.834 514C628.834 514 611 496.166 611 474.166Z" fill="#A9D18E" fill-rule="evenodd"/><text font-family="Microsoft YaHei,Microsoft YaHei_MSFontService,sans-serif" font-weight="400" font-size="24" transform="translate(623.439 302)">实时计算</text><rect x="777.5" y="332.5" width="121" height="37" stroke="#000000" stroke-width="1.33333" stroke-miterlimit="8" fill="#FFFFFF"/><text font-family="Microsoft YaHei,Microsoft YaHei_MSFontService,sans-serif" font-weight="400" font-size="24" transform="translate(789.784 359)">乘车区间</text><rect x="621.5" y="332.5" width="120" height="37" stroke="#000000" stroke-width="1.33333" stroke-miterlimit="8" fill="#FFFFFF"/><text font-family="Microsoft YaHei,Microsoft YaHei_MSFontService,sans-serif" font-weight="400" font-size="24" transform="translate(632.845 359)">站点客流</text><rect x="674.5" y="445.5" width="171" height="37" stroke="#000000" stroke-width="1.33333" stroke-miterlimit="8" fill="#FFFFFF"/><text font-family="Microsoft YaHei,Microsoft YaHei_MSFontService,sans-serif" font-weight="400" font-size="24" transform="translate(735.83 472)">其他</text><rect x="621.5" y="388.5" width="120" height="37" stroke="#000000" stroke-width="1.33333" stroke-miterlimit="8" fill="#FFFFFF"/><text font-family="Microsoft YaHei,Microsoft YaHei_MSFontService,sans-serif" font-weight="400" font-size="24" transform="translate(632.845 415)">乘车时间</text><rect x="777.5" y="389.5" width="121" height="37" stroke="#000000" stroke-width="1.33333" stroke-miterlimit="8" fill="#FFFFFF"/><text font-family="Microsoft YaHei,Microsoft YaHei_MSFontService,sans-serif" font-weight="400" font-size="24" transform="translate(789.784 416)">乘车费用</text><path d="M0-2 53.816-2 53.816 94.2707 51.816 92.2707 87.1099 92.2707 87.1099 96.2707 49.816 96.2707 49.816 0 51.816 2 0 2ZM85.1099 88.2707 97.1099 94.2707 85.1099 100.271Z" fill="#404040" transform="matrix(-4.37114e-08 1 1 4.37114e-08 666 178)"/><path d="M0-2 54.0139-2 54.0139 444.37 52.0139 442.37 87.11 442.37 87.11 446.37 50.0139 446.37 50.0139 0 52.0139 2 0 2ZM85.11 438.37 97.11 444.37 85.11 450.37Z" fill="#404040" transform="matrix(-4.37114e-08 1 1 4.37114e-08 666 178)"/><path d="M961 314.834C961 292.834 978.834 275 1000.83 275L1219.17 275C1241.17 275 1259 292.834 1259 314.834L1259 474.166C1259 496.166 1241.17 514 1219.17 514L1000.83 514C978.834 514 961 496.166 961 474.166Z" fill="#F8CBAD" fill-rule="evenodd"/><text font-family="Microsoft YaHei,Microsoft YaHei_MSFontService,sans-serif" font-weight="400" font-size="24" transform="translate(976.95 301)">可视化</text><rect x="1024.5" y="320.5" width="171" height="38" stroke="#000000" stroke-width="1.33333" stroke-miterlimit="8" fill="#FFFFFF"/><text font-family="Microsoft YaHei,Microsoft YaHei_MSFontService,sans-serif" font-weight="400" font-size="24" transform="translate(1037.21 348)">Elasticsearch</text><rect x="1024.5" y="393.5" width="171" height="37" stroke="#000000" stroke-width="1.33333" stroke-miterlimit="8" fill="#FFFFFF"/><text font-family="Microsoft YaHei,Microsoft YaHei_MSFontService,sans-serif" font-weight="400" font-size="24" transform="translate(1070.79 420)">Kibana</text><rect x="1024.5" y="465.5" width="171" height="37" stroke="#000000" stroke-width="1.33333" stroke-miterlimit="8" fill="#FFFFFF"/><text font-family="Microsoft YaHei,Microsoft YaHei_MSFontService,sans-serif" font-weight="400" font-size="24" transform="translate(1049.79 492)">可视化结果</text><path d="M1-2.98813e-06 1.00009 28.468-0.999915 28.468-1 2.98813e-06ZM4.00008 27.1347 0.000104987 35.1347-3.99992 27.1347Z" transform="matrix(-1 -8.74228e-08 -8.74228e-08 1 1110 358)"/><path d="M1111 430 1111 458.468 1109 458.468 1109 430ZM1114 457.135 1110 465.135 1106 457.135Z"/><path d="M667.684 178 667.684 232.397 401 232.397 403 230.397 403 363.46 399 363.46 399 228.397 665.684 228.397 663.684 230.397 663.684 178ZM407 361.46 401 373.46 395 361.46Z" fill="#404040"/><path d="M2-2.50619e-06 2.00009 73.7819-1.99991 73.7819-2 2.50619e-06ZM6.00009 71.7819 0.000104987 83.7819-5.99991 71.7819Z" fill="#404040" transform="matrix(-1 -8.74228e-08 -8.74228e-08 1 760 514)"/><text font-family="Microsoft YaHei,Microsoft YaHei_MSFontService,sans-serif" font-weight="400" font-size="24" transform="translate(789.535 568)">Flink<tspan font-size="48" x="-673.711" y="-505">系统架构图</tspan></text></g></svg>